<mxfile host="app.diagrams.net" agent="Mozilla/5.0 (Windows NT 10.0; Win64; x64) AppleWebKit/537.36 (KHTML, like Gecko) Chrome/140.0.0.0 Safari/537.36" version="28.2.5">
  <diagram name="Página-1" id="mxPpVCN4O8EqxllRH2Cp">
    <mxGraphModel dx="1976" dy="640" grid="1" gridSize="10" guides="1" tooltips="1" connect="1" arrows="1" fold="1" page="0" pageScale="1" pageWidth="827" pageHeight="1169" math="0" shadow="0">
      <root>
        <mxCell id="0" />
        <mxCell id="1" parent="0" />
        <mxCell id="RGcNfcq3NrGdRCZg9mUL-3" value="" style="edgeStyle=orthogonalEdgeStyle;rounded=0;orthogonalLoop=1;jettySize=auto;html=1;" parent="1" source="RGcNfcq3NrGdRCZg9mUL-1" edge="1">
          <mxGeometry relative="1" as="geometry">
            <mxPoint x="350" y="180" as="targetPoint" />
          </mxGeometry>
        </mxCell>
        <mxCell id="RGcNfcq3NrGdRCZg9mUL-1" value="Inici" style="ellipse;whiteSpace=wrap;html=1;" parent="1" vertex="1">
          <mxGeometry x="290" y="50" width="120" height="80" as="geometry" />
        </mxCell>
        <mxCell id="RGcNfcq3NrGdRCZg9mUL-9" style="edgeStyle=orthogonalEdgeStyle;rounded=0;orthogonalLoop=1;jettySize=auto;html=1;exitX=1;exitY=0.5;exitDx=0;exitDy=0;" parent="1" source="RGcNfcq3NrGdRCZg9mUL-4" target="RGcNfcq3NrGdRCZg9mUL-8" edge="1">
          <mxGeometry relative="1" as="geometry" />
        </mxCell>
        <mxCell id="RGcNfcq3NrGdRCZg9mUL-10" style="edgeStyle=orthogonalEdgeStyle;rounded=0;orthogonalLoop=1;jettySize=auto;html=1;exitX=0;exitY=0.5;exitDx=0;exitDy=0;" parent="1" source="RGcNfcq3NrGdRCZg9mUL-4" target="RGcNfcq3NrGdRCZg9mUL-7" edge="1">
          <mxGeometry relative="1" as="geometry" />
        </mxCell>
        <mxCell id="RGcNfcq3NrGdRCZg9mUL-4" value="Que fàs amb la Biblia?" style="rhombus;whiteSpace=wrap;html=1;" parent="1" vertex="1">
          <mxGeometry x="235" y="300" width="220" height="160" as="geometry" />
        </mxCell>
        <mxCell id="RGcNfcq3NrGdRCZg9mUL-6" value="" style="edgeStyle=orthogonalEdgeStyle;rounded=0;orthogonalLoop=1;jettySize=auto;html=1;" parent="1" source="RGcNfcq3NrGdRCZg9mUL-5" target="RGcNfcq3NrGdRCZg9mUL-4" edge="1">
          <mxGeometry relative="1" as="geometry" />
        </mxCell>
        <mxCell id="RGcNfcq3NrGdRCZg9mUL-5" value="Arribes a la casa&lt;div&gt;i decideixes.&lt;/div&gt;" style="shape=parallelogram;perimeter=parallelogramPerimeter;whiteSpace=wrap;html=1;fixedSize=1;" parent="1" vertex="1">
          <mxGeometry x="285" y="180" width="120" height="60" as="geometry" />
        </mxCell>
        <mxCell id="RGcNfcq3NrGdRCZg9mUL-13" value="" style="edgeStyle=orthogonalEdgeStyle;rounded=0;orthogonalLoop=1;jettySize=auto;html=1;" parent="1" source="RGcNfcq3NrGdRCZg9mUL-7" target="RGcNfcq3NrGdRCZg9mUL-12" edge="1">
          <mxGeometry relative="1" as="geometry" />
        </mxCell>
        <mxCell id="RGcNfcq3NrGdRCZg9mUL-7" value="True" style="text;html=1;align=center;verticalAlign=middle;whiteSpace=wrap;rounded=0;" parent="1" vertex="1">
          <mxGeometry x="80" y="365" width="60" height="30" as="geometry" />
        </mxCell>
        <mxCell id="RGcNfcq3NrGdRCZg9mUL-15" value="" style="edgeStyle=orthogonalEdgeStyle;rounded=0;orthogonalLoop=1;jettySize=auto;html=1;" parent="1" source="RGcNfcq3NrGdRCZg9mUL-8" target="RGcNfcq3NrGdRCZg9mUL-14" edge="1">
          <mxGeometry relative="1" as="geometry" />
        </mxCell>
        <mxCell id="RGcNfcq3NrGdRCZg9mUL-8" value="False" style="text;html=1;align=center;verticalAlign=middle;whiteSpace=wrap;rounded=0;" parent="1" vertex="1">
          <mxGeometry x="570" y="365" width="60" height="30" as="geometry" />
        </mxCell>
        <mxCell id="DXvPc6yWmwzxl_TowybC-5" style="edgeStyle=orthogonalEdgeStyle;rounded=0;orthogonalLoop=1;jettySize=auto;html=1;exitX=0.5;exitY=1;exitDx=0;exitDy=0;entryX=0;entryY=0.75;entryDx=0;entryDy=0;" parent="1" source="RGcNfcq3NrGdRCZg9mUL-12" target="DXvPc6yWmwzxl_TowybC-1" edge="1">
          <mxGeometry relative="1" as="geometry" />
        </mxCell>
        <mxCell id="RGcNfcq3NrGdRCZg9mUL-12" value="Tens la Biblia." style="rounded=0;whiteSpace=wrap;html=1;" parent="1" vertex="1">
          <mxGeometry x="50" y="460" width="120" height="60" as="geometry" />
        </mxCell>
        <mxCell id="DXvPc6yWmwzxl_TowybC-6" style="edgeStyle=orthogonalEdgeStyle;rounded=0;orthogonalLoop=1;jettySize=auto;html=1;exitX=0.5;exitY=1;exitDx=0;exitDy=0;entryX=1;entryY=0.75;entryDx=0;entryDy=0;" parent="1" source="RGcNfcq3NrGdRCZg9mUL-14" target="DXvPc6yWmwzxl_TowybC-1" edge="1">
          <mxGeometry relative="1" as="geometry" />
        </mxCell>
        <mxCell id="RGcNfcq3NrGdRCZg9mUL-14" value="Has decidit no agafar&amp;nbsp;&lt;div&gt;la biblia.&lt;/div&gt;" style="rounded=0;whiteSpace=wrap;html=1;" parent="1" vertex="1">
          <mxGeometry x="540" y="450" width="120" height="60" as="geometry" />
        </mxCell>
        <mxCell id="DXvPc6yWmwzxl_TowybC-7" value="" style="edgeStyle=orthogonalEdgeStyle;rounded=0;orthogonalLoop=1;jettySize=auto;html=1;" parent="1" source="DXvPc6yWmwzxl_TowybC-1" target="DXvPc6yWmwzxl_TowybC-4" edge="1">
          <mxGeometry relative="1" as="geometry" />
        </mxCell>
        <mxCell id="DXvPc6yWmwzxl_TowybC-1" value="Estàs davant de la porta principal." style="rounded=0;whiteSpace=wrap;html=1;" parent="1" vertex="1">
          <mxGeometry x="285" y="590" width="120" height="60" as="geometry" />
        </mxCell>
        <mxCell id="DXvPc6yWmwzxl_TowybC-10" value="" style="edgeStyle=orthogonalEdgeStyle;rounded=0;orthogonalLoop=1;jettySize=auto;html=1;" parent="1" source="DXvPc6yWmwzxl_TowybC-4" target="DXvPc6yWmwzxl_TowybC-9" edge="1">
          <mxGeometry relative="1" as="geometry" />
        </mxCell>
        <mxCell id="DXvPc6yWmwzxl_TowybC-11" value="" style="edgeStyle=orthogonalEdgeStyle;rounded=0;orthogonalLoop=1;jettySize=auto;html=1;" parent="1" source="DXvPc6yWmwzxl_TowybC-4" target="DXvPc6yWmwzxl_TowybC-8" edge="1">
          <mxGeometry relative="1" as="geometry" />
        </mxCell>
        <mxCell id="DXvPc6yWmwzxl_TowybC-4" value="Entrar per la porta principal?&lt;div&gt;o&lt;/div&gt;&lt;div&gt;Entrar per porta darrere?&lt;/div&gt;" style="rhombus;whiteSpace=wrap;html=1;" parent="1" vertex="1">
          <mxGeometry x="248.75" y="720" width="192.5" height="190" as="geometry" />
        </mxCell>
        <mxCell id="DXvPc6yWmwzxl_TowybC-13" value="" style="edgeStyle=orthogonalEdgeStyle;rounded=0;orthogonalLoop=1;jettySize=auto;html=1;" parent="1" source="DXvPc6yWmwzxl_TowybC-8" edge="1">
          <mxGeometry relative="1" as="geometry">
            <mxPoint x="130" y="910" as="targetPoint" />
          </mxGeometry>
        </mxCell>
        <mxCell id="DXvPc6yWmwzxl_TowybC-8" value="True" style="text;html=1;align=center;verticalAlign=middle;whiteSpace=wrap;rounded=0;" parent="1" vertex="1">
          <mxGeometry x="100" y="800" width="60" height="30" as="geometry" />
        </mxCell>
        <mxCell id="DXvPc6yWmwzxl_TowybC-17" value="" style="edgeStyle=orthogonalEdgeStyle;rounded=0;orthogonalLoop=1;jettySize=auto;html=1;" parent="1" source="DXvPc6yWmwzxl_TowybC-9" target="DXvPc6yWmwzxl_TowybC-16" edge="1">
          <mxGeometry relative="1" as="geometry" />
        </mxCell>
        <mxCell id="DXvPc6yWmwzxl_TowybC-9" value="False" style="text;html=1;align=center;verticalAlign=middle;whiteSpace=wrap;rounded=0;" parent="1" vertex="1">
          <mxGeometry x="682.5" y="800" width="60" height="30" as="geometry" />
        </mxCell>
        <mxCell id="jPeqhv5qNegoeW0ZLiaF-2" value="" style="edgeStyle=orthogonalEdgeStyle;rounded=0;orthogonalLoop=1;jettySize=auto;html=1;" edge="1" parent="1" source="DXvPc6yWmwzxl_TowybC-15" target="jPeqhv5qNegoeW0ZLiaF-1">
          <mxGeometry relative="1" as="geometry" />
        </mxCell>
        <mxCell id="DXvPc6yWmwzxl_TowybC-15" value="Entras per la porta principal" style="shape=parallelogram;perimeter=parallelogramPerimeter;whiteSpace=wrap;html=1;fixedSize=1;" parent="1" vertex="1">
          <mxGeometry x="50" y="910" width="140" height="70" as="geometry" />
        </mxCell>
        <mxCell id="jPeqhv5qNegoeW0ZLiaF-61" value="" style="edgeStyle=orthogonalEdgeStyle;rounded=0;orthogonalLoop=1;jettySize=auto;html=1;" edge="1" parent="1" source="DXvPc6yWmwzxl_TowybC-16" target="jPeqhv5qNegoeW0ZLiaF-60">
          <mxGeometry relative="1" as="geometry" />
        </mxCell>
        <mxCell id="DXvPc6yWmwzxl_TowybC-16" value="Entras per la porta de darere" style="shape=parallelogram;perimeter=parallelogramPerimeter;whiteSpace=wrap;html=1;fixedSize=1;" parent="1" vertex="1">
          <mxGeometry x="1050" y="915" width="150" height="65" as="geometry" />
        </mxCell>
        <mxCell id="jPeqhv5qNegoeW0ZLiaF-6" value="" style="edgeStyle=orthogonalEdgeStyle;rounded=0;orthogonalLoop=1;jettySize=auto;html=1;" edge="1" parent="1" source="DXvPc6yWmwzxl_TowybC-18" target="jPeqhv5qNegoeW0ZLiaF-4">
          <mxGeometry relative="1" as="geometry" />
        </mxCell>
        <mxCell id="jPeqhv5qNegoeW0ZLiaF-7" value="" style="edgeStyle=orthogonalEdgeStyle;rounded=0;orthogonalLoop=1;jettySize=auto;html=1;" edge="1" parent="1" source="DXvPc6yWmwzxl_TowybC-18" target="jPeqhv5qNegoeW0ZLiaF-5">
          <mxGeometry relative="1" as="geometry" />
        </mxCell>
        <mxCell id="DXvPc6yWmwzxl_TowybC-18" value="Planta superior&amp;nbsp;&lt;div&gt;o&lt;/div&gt;&lt;div&gt;Soterrani?&lt;/div&gt;" style="rhombus;whiteSpace=wrap;html=1;" parent="1" vertex="1">
          <mxGeometry x="45" y="1140" width="150" height="140" as="geometry" />
        </mxCell>
        <mxCell id="jPeqhv5qNegoeW0ZLiaF-3" value="" style="edgeStyle=orthogonalEdgeStyle;rounded=0;orthogonalLoop=1;jettySize=auto;html=1;" edge="1" parent="1" source="jPeqhv5qNegoeW0ZLiaF-1" target="DXvPc6yWmwzxl_TowybC-18">
          <mxGeometry relative="1" as="geometry" />
        </mxCell>
        <mxCell id="jPeqhv5qNegoeW0ZLiaF-1" value="Ara has de decidir per on aniràs" style="rounded=0;whiteSpace=wrap;html=1;" vertex="1" parent="1">
          <mxGeometry x="60" y="1040" width="120" height="60" as="geometry" />
        </mxCell>
        <mxCell id="jPeqhv5qNegoeW0ZLiaF-9" value="" style="edgeStyle=orthogonalEdgeStyle;rounded=0;orthogonalLoop=1;jettySize=auto;html=1;" edge="1" parent="1" source="jPeqhv5qNegoeW0ZLiaF-4" target="jPeqhv5qNegoeW0ZLiaF-8">
          <mxGeometry relative="1" as="geometry" />
        </mxCell>
        <mxCell id="jPeqhv5qNegoeW0ZLiaF-4" value="True" style="text;html=1;align=center;verticalAlign=middle;whiteSpace=wrap;rounded=0;" vertex="1" parent="1">
          <mxGeometry x="-110" y="1195" width="60" height="30" as="geometry" />
        </mxCell>
        <mxCell id="jPeqhv5qNegoeW0ZLiaF-11" value="" style="edgeStyle=orthogonalEdgeStyle;rounded=0;orthogonalLoop=1;jettySize=auto;html=1;" edge="1" parent="1" source="jPeqhv5qNegoeW0ZLiaF-5" target="jPeqhv5qNegoeW0ZLiaF-10">
          <mxGeometry relative="1" as="geometry">
            <Array as="points">
              <mxPoint x="315" y="1250" />
              <mxPoint x="600" y="1250" />
            </Array>
          </mxGeometry>
        </mxCell>
        <mxCell id="jPeqhv5qNegoeW0ZLiaF-5" value="False" style="text;html=1;align=center;verticalAlign=middle;whiteSpace=wrap;rounded=0;" vertex="1" parent="1">
          <mxGeometry x="260" y="1240" width="60" height="30" as="geometry" />
        </mxCell>
        <mxCell id="jPeqhv5qNegoeW0ZLiaF-13" value="" style="edgeStyle=orthogonalEdgeStyle;rounded=0;orthogonalLoop=1;jettySize=auto;html=1;" edge="1" parent="1" source="jPeqhv5qNegoeW0ZLiaF-8">
          <mxGeometry relative="1" as="geometry">
            <mxPoint x="-80" y="1450.0000000000002" as="targetPoint" />
          </mxGeometry>
        </mxCell>
        <mxCell id="jPeqhv5qNegoeW0ZLiaF-8" value="&lt;span id=&quot;docs-internal-guid-a667d603-7fff-cb88-b548-8ae45910b912&quot;&gt;&lt;span style=&quot;font-family: Lexend, sans-serif; color: rgb(0, 0, 0); background-color: transparent; font-variant-numeric: normal; font-variant-east-asian: normal; font-variant-alternates: normal; font-variant-position: normal; font-variant-emoji: normal; vertical-align: baseline; white-space-collapse: preserve;&quot;&gt;&lt;font&gt;Veus una persona vella i amb una forma molt estranya.&lt;/font&gt;&lt;/span&gt;&lt;/span&gt;" style="rounded=0;whiteSpace=wrap;html=1;" vertex="1" parent="1">
          <mxGeometry x="-150" y="1290" width="140" height="100" as="geometry" />
        </mxCell>
        <mxCell id="jPeqhv5qNegoeW0ZLiaF-41" value="" style="edgeStyle=orthogonalEdgeStyle;rounded=0;orthogonalLoop=1;jettySize=auto;html=1;" edge="1" parent="1" source="jPeqhv5qNegoeW0ZLiaF-10" target="jPeqhv5qNegoeW0ZLiaF-40">
          <mxGeometry relative="1" as="geometry" />
        </mxCell>
        <mxCell id="jPeqhv5qNegoeW0ZLiaF-10" value="&lt;span id=&quot;docs-internal-guid-a0fb82fe-7fff-4b71-febf-bd9c62ccd539&quot;&gt;&lt;font&gt;&lt;span style=&quot;background-color: transparent; color: light-dark(rgb(153, 0, 255), rgb(255, 150, 255)); font-family: Lexend, sans-serif; white-space-collapse: preserve; font-variant-numeric: normal; font-variant-east-asian: normal; font-variant-alternates: normal; font-variant-position: normal; font-variant-emoji: normal; vertical-align: baseline;&quot;&gt;&amp;nbsp;&lt;/span&gt;&lt;span style=&quot;background-color: transparent; font-family: Lexend, sans-serif; white-space-collapse: preserve; color: rgb(0, 0, 0); font-variant-numeric: normal; font-variant-east-asian: normal; font-variant-alternates: normal; font-variant-position: normal; font-variant-emoji: normal; vertical-align: baseline;&quot;&gt;Està tot fosc i hi ha un home amb una destral.&lt;/span&gt;&lt;/font&gt;&lt;/span&gt;" style="rounded=0;whiteSpace=wrap;html=1;" vertex="1" parent="1">
          <mxGeometry x="517.5" y="1440" width="165" height="100" as="geometry" />
        </mxCell>
        <mxCell id="jPeqhv5qNegoeW0ZLiaF-19" value="" style="edgeStyle=orthogonalEdgeStyle;rounded=0;orthogonalLoop=1;jettySize=auto;html=1;" edge="1" parent="1" source="jPeqhv5qNegoeW0ZLiaF-15" target="jPeqhv5qNegoeW0ZLiaF-16">
          <mxGeometry relative="1" as="geometry" />
        </mxCell>
        <mxCell id="jPeqhv5qNegoeW0ZLiaF-20" value="" style="edgeStyle=orthogonalEdgeStyle;rounded=0;orthogonalLoop=1;jettySize=auto;html=1;" edge="1" parent="1" source="jPeqhv5qNegoeW0ZLiaF-15" target="jPeqhv5qNegoeW0ZLiaF-17">
          <mxGeometry relative="1" as="geometry" />
        </mxCell>
        <mxCell id="jPeqhv5qNegoeW0ZLiaF-21" value="" style="edgeStyle=orthogonalEdgeStyle;rounded=0;orthogonalLoop=1;jettySize=auto;html=1;" edge="1" parent="1" source="jPeqhv5qNegoeW0ZLiaF-15" target="jPeqhv5qNegoeW0ZLiaF-18">
          <mxGeometry relative="1" as="geometry" />
        </mxCell>
        <mxCell id="jPeqhv5qNegoeW0ZLiaF-15" value="L&#39;ajudes o no?" style="rhombus;whiteSpace=wrap;html=1;" vertex="1" parent="1">
          <mxGeometry x="-145" y="1450" width="130" height="120" as="geometry" />
        </mxCell>
        <mxCell id="jPeqhv5qNegoeW0ZLiaF-23" value="" style="edgeStyle=orthogonalEdgeStyle;rounded=0;orthogonalLoop=1;jettySize=auto;html=1;" edge="1" parent="1" source="jPeqhv5qNegoeW0ZLiaF-16" target="jPeqhv5qNegoeW0ZLiaF-22">
          <mxGeometry relative="1" as="geometry" />
        </mxCell>
        <mxCell id="jPeqhv5qNegoeW0ZLiaF-16" value="True ( Biblia)" style="text;html=1;align=center;verticalAlign=middle;whiteSpace=wrap;rounded=0;" vertex="1" parent="1">
          <mxGeometry x="-270" y="1495" width="70" height="30" as="geometry" />
        </mxCell>
        <mxCell id="jPeqhv5qNegoeW0ZLiaF-27" value="" style="edgeStyle=orthogonalEdgeStyle;rounded=0;orthogonalLoop=1;jettySize=auto;html=1;" edge="1" parent="1" source="jPeqhv5qNegoeW0ZLiaF-17" target="jPeqhv5qNegoeW0ZLiaF-26">
          <mxGeometry relative="1" as="geometry" />
        </mxCell>
        <mxCell id="jPeqhv5qNegoeW0ZLiaF-17" value="False ( Biblia)" style="text;html=1;align=center;verticalAlign=middle;whiteSpace=wrap;rounded=0;" vertex="1" parent="1">
          <mxGeometry x="20" y="1495" width="90" height="30" as="geometry" />
        </mxCell>
        <mxCell id="jPeqhv5qNegoeW0ZLiaF-31" value="" style="edgeStyle=orthogonalEdgeStyle;rounded=0;orthogonalLoop=1;jettySize=auto;html=1;" edge="1" parent="1" source="jPeqhv5qNegoeW0ZLiaF-18" target="jPeqhv5qNegoeW0ZLiaF-30">
          <mxGeometry relative="1" as="geometry" />
        </mxCell>
        <mxCell id="jPeqhv5qNegoeW0ZLiaF-18" value="No" style="text;html=1;align=center;verticalAlign=middle;whiteSpace=wrap;rounded=0;" vertex="1" parent="1">
          <mxGeometry x="-110" y="1590" width="60" height="30" as="geometry" />
        </mxCell>
        <mxCell id="jPeqhv5qNegoeW0ZLiaF-25" value="" style="edgeStyle=orthogonalEdgeStyle;rounded=0;orthogonalLoop=1;jettySize=auto;html=1;" edge="1" parent="1" source="jPeqhv5qNegoeW0ZLiaF-22" target="jPeqhv5qNegoeW0ZLiaF-24">
          <mxGeometry relative="1" as="geometry" />
        </mxCell>
        <mxCell id="jPeqhv5qNegoeW0ZLiaF-22" value="&lt;span id=&quot;docs-internal-guid-3df16455-7fff-9014-497a-fb85cc420935&quot;&gt;&lt;span style=&quot;font-family: Lexend, sans-serif; color: rgb(0, 0, 0); background-color: transparent; font-variant-numeric: normal; font-variant-east-asian: normal; font-variant-alternates: normal; font-variant-position: normal; font-variant-emoji: normal; vertical-align: baseline; white-space-collapse: preserve;&quot;&gt;&lt;font&gt;Es un espíritu, no et posseeix i salves a la família.&lt;/font&gt;&lt;/span&gt;&lt;/span&gt;" style="rounded=0;whiteSpace=wrap;html=1;" vertex="1" parent="1">
          <mxGeometry x="-450" y="1480" width="120" height="60" as="geometry" />
        </mxCell>
        <mxCell id="jPeqhv5qNegoeW0ZLiaF-24" value="" style="ellipse;html=1;shape=endState;fillColor=#000000;strokeColor=#ff0000;" vertex="1" parent="1">
          <mxGeometry x="-550" y="1495" width="30" height="30" as="geometry" />
        </mxCell>
        <mxCell id="jPeqhv5qNegoeW0ZLiaF-29" value="" style="edgeStyle=orthogonalEdgeStyle;rounded=0;orthogonalLoop=1;jettySize=auto;html=1;" edge="1" parent="1" source="jPeqhv5qNegoeW0ZLiaF-26" target="jPeqhv5qNegoeW0ZLiaF-28">
          <mxGeometry relative="1" as="geometry" />
        </mxCell>
        <mxCell id="jPeqhv5qNegoeW0ZLiaF-26" value="&lt;span id=&quot;docs-internal-guid-e2081465-7fff-ca8c-366b-b2adb39af182&quot;&gt;&lt;span style=&quot;font-family: Lexend, sans-serif; color: rgb(0, 0, 0); background-color: transparent; font-variant-numeric: normal; font-variant-east-asian: normal; font-variant-alternates: normal; font-variant-position: normal; font-variant-emoji: normal; vertical-align: baseline; white-space-collapse: preserve;&quot;&gt;&lt;font&gt;Et posseeix i mates a tota la família.&lt;/font&gt;&lt;/span&gt;&lt;/span&gt;" style="rounded=0;whiteSpace=wrap;html=1;" vertex="1" parent="1">
          <mxGeometry x="170" y="1480" width="120" height="60" as="geometry" />
        </mxCell>
        <mxCell id="jPeqhv5qNegoeW0ZLiaF-28" value="" style="ellipse;html=1;shape=endState;fillColor=#000000;strokeColor=#ff0000;" vertex="1" parent="1">
          <mxGeometry x="350" y="1495" width="30" height="30" as="geometry" />
        </mxCell>
        <mxCell id="jPeqhv5qNegoeW0ZLiaF-37" value="" style="edgeStyle=orthogonalEdgeStyle;rounded=0;orthogonalLoop=1;jettySize=auto;html=1;" edge="1" parent="1" source="jPeqhv5qNegoeW0ZLiaF-30" target="jPeqhv5qNegoeW0ZLiaF-35">
          <mxGeometry relative="1" as="geometry" />
        </mxCell>
        <mxCell id="jPeqhv5qNegoeW0ZLiaF-30" value="&lt;span id=&quot;docs-internal-guid-d4382807-7fff-f198-7c8b-2f79f51b0eff&quot;&gt;&lt;span style=&quot;font-family: Lexend, sans-serif; color: rgb(0, 0, 0); background-color: transparent; font-variant-numeric: normal; font-variant-east-asian: normal; font-variant-alternates: normal; font-variant-position: normal; font-variant-emoji: normal; vertical-align: baseline; white-space-collapse: preserve;&quot;&gt;&lt;font&gt;Per la seva presència et suïcides amb la mateixa creu que tens de penjoll.&lt;/font&gt;&lt;/span&gt;&lt;/span&gt;" style="rounded=0;whiteSpace=wrap;html=1;" vertex="1" parent="1">
          <mxGeometry x="-150" y="1650" width="140" height="120" as="geometry" />
        </mxCell>
        <mxCell id="jPeqhv5qNegoeW0ZLiaF-32" value="Actor" style="shape=umlActor;verticalLabelPosition=bottom;verticalAlign=top;html=1;outlineConnect=0;" vertex="1" parent="1">
          <mxGeometry x="-180" y="1820" width="170" height="270" as="geometry" />
        </mxCell>
        <mxCell id="jPeqhv5qNegoeW0ZLiaF-33" value="X" style="text;html=1;align=center;verticalAlign=middle;whiteSpace=wrap;rounded=0;" vertex="1" parent="1">
          <mxGeometry x="-140" y="1830" width="60" height="30" as="geometry" />
        </mxCell>
        <mxCell id="jPeqhv5qNegoeW0ZLiaF-35" value="X" style="text;html=1;align=center;verticalAlign=middle;whiteSpace=wrap;rounded=0;" vertex="1" parent="1">
          <mxGeometry x="-110" y="1830" width="60" height="30" as="geometry" />
        </mxCell>
        <mxCell id="jPeqhv5qNegoeW0ZLiaF-36" value="" style="endArrow=none;html=1;rounded=0;entryX=0.5;entryY=1;entryDx=0;entryDy=0;" edge="1" parent="1" target="jPeqhv5qNegoeW0ZLiaF-35">
          <mxGeometry width="50" height="50" relative="1" as="geometry">
            <mxPoint x="-120" y="1880" as="sourcePoint" />
            <mxPoint x="-70" y="1830" as="targetPoint" />
          </mxGeometry>
        </mxCell>
        <mxCell id="jPeqhv5qNegoeW0ZLiaF-38" value="" style="ellipse;html=1;shape=endState;fillColor=#000000;strokeColor=#ff0000;" vertex="1" parent="1">
          <mxGeometry x="-95" y="1790" width="30" height="30" as="geometry" />
        </mxCell>
        <mxCell id="jPeqhv5qNegoeW0ZLiaF-44" value="" style="edgeStyle=orthogonalEdgeStyle;rounded=0;orthogonalLoop=1;jettySize=auto;html=1;" edge="1" parent="1" source="jPeqhv5qNegoeW0ZLiaF-40" target="jPeqhv5qNegoeW0ZLiaF-42">
          <mxGeometry relative="1" as="geometry" />
        </mxCell>
        <mxCell id="jPeqhv5qNegoeW0ZLiaF-45" value="" style="edgeStyle=orthogonalEdgeStyle;rounded=0;orthogonalLoop=1;jettySize=auto;html=1;" edge="1" parent="1" source="jPeqhv5qNegoeW0ZLiaF-40" target="jPeqhv5qNegoeW0ZLiaF-43">
          <mxGeometry relative="1" as="geometry" />
        </mxCell>
        <mxCell id="jPeqhv5qNegoeW0ZLiaF-47" value="" style="edgeStyle=orthogonalEdgeStyle;rounded=0;orthogonalLoop=1;jettySize=auto;html=1;" edge="1" parent="1" source="jPeqhv5qNegoeW0ZLiaF-40" target="jPeqhv5qNegoeW0ZLiaF-46">
          <mxGeometry relative="1" as="geometry" />
        </mxCell>
        <mxCell id="jPeqhv5qNegoeW0ZLiaF-40" value="Afrontar amb ell o&lt;div&gt;Escapar?&lt;/div&gt;" style="rhombus;whiteSpace=wrap;html=1;" vertex="1" parent="1">
          <mxGeometry x="535" y="1620" width="130" height="120" as="geometry" />
        </mxCell>
        <mxCell id="jPeqhv5qNegoeW0ZLiaF-49" value="" style="edgeStyle=orthogonalEdgeStyle;rounded=0;orthogonalLoop=1;jettySize=auto;html=1;" edge="1" parent="1" source="jPeqhv5qNegoeW0ZLiaF-42" target="jPeqhv5qNegoeW0ZLiaF-48">
          <mxGeometry relative="1" as="geometry" />
        </mxCell>
        <mxCell id="jPeqhv5qNegoeW0ZLiaF-42" value="True ( Biblia)" style="text;html=1;align=center;verticalAlign=middle;whiteSpace=wrap;rounded=0;" vertex="1" parent="1">
          <mxGeometry x="351.25" y="1665" width="90" height="30" as="geometry" />
        </mxCell>
        <mxCell id="jPeqhv5qNegoeW0ZLiaF-53" value="" style="edgeStyle=orthogonalEdgeStyle;rounded=0;orthogonalLoop=1;jettySize=auto;html=1;" edge="1" parent="1" source="jPeqhv5qNegoeW0ZLiaF-43" target="jPeqhv5qNegoeW0ZLiaF-52">
          <mxGeometry relative="1" as="geometry" />
        </mxCell>
        <mxCell id="jPeqhv5qNegoeW0ZLiaF-43" value="False ( Biblia)" style="text;html=1;align=center;verticalAlign=middle;whiteSpace=wrap;rounded=0;" vertex="1" parent="1">
          <mxGeometry x="740" y="1665" width="80" height="30" as="geometry" />
        </mxCell>
        <mxCell id="jPeqhv5qNegoeW0ZLiaF-51" value="" style="edgeStyle=orthogonalEdgeStyle;rounded=0;orthogonalLoop=1;jettySize=auto;html=1;" edge="1" parent="1" source="jPeqhv5qNegoeW0ZLiaF-46" target="jPeqhv5qNegoeW0ZLiaF-50">
          <mxGeometry relative="1" as="geometry" />
        </mxCell>
        <mxCell id="jPeqhv5qNegoeW0ZLiaF-46" value="Escapar" style="text;html=1;align=center;verticalAlign=middle;whiteSpace=wrap;rounded=0;" vertex="1" parent="1">
          <mxGeometry x="570" y="1780" width="60" height="30" as="geometry" />
        </mxCell>
        <mxCell id="jPeqhv5qNegoeW0ZLiaF-57" value="" style="edgeStyle=orthogonalEdgeStyle;rounded=0;orthogonalLoop=1;jettySize=auto;html=1;" edge="1" parent="1" source="jPeqhv5qNegoeW0ZLiaF-48" target="jPeqhv5qNegoeW0ZLiaF-54">
          <mxGeometry relative="1" as="geometry" />
        </mxCell>
        <mxCell id="jPeqhv5qNegoeW0ZLiaF-48" value="&lt;span id=&quot;docs-internal-guid-ce0507f7-7fff-e098-4523-0feaf7527268&quot;&gt;&lt;span style=&quot;font-family: Lexend, sans-serif; color: rgb(0, 0, 0); background-color: transparent; font-variant-numeric: normal; font-variant-east-asian: normal; font-variant-alternates: normal; font-variant-position: normal; font-variant-emoji: normal; vertical-align: baseline; white-space-collapse: preserve;&quot;&gt;&lt;font&gt;Resulta que tens una creu a la bíblia i aconsegueixes fer un exorcisme i desapareix.&lt;/font&gt;&lt;/span&gt;&lt;/span&gt;" style="rounded=0;whiteSpace=wrap;html=1;" vertex="1" parent="1">
          <mxGeometry x="324.38" y="1780" width="143.75" height="140" as="geometry" />
        </mxCell>
        <mxCell id="jPeqhv5qNegoeW0ZLiaF-58" value="" style="edgeStyle=orthogonalEdgeStyle;rounded=0;orthogonalLoop=1;jettySize=auto;html=1;" edge="1" parent="1" source="jPeqhv5qNegoeW0ZLiaF-50" target="jPeqhv5qNegoeW0ZLiaF-55">
          <mxGeometry relative="1" as="geometry" />
        </mxCell>
        <mxCell id="jPeqhv5qNegoeW0ZLiaF-50" value="&lt;br&gt;&lt;font&gt;&lt;b id=&quot;docs-internal-guid-9e836198-7fff-a972-4cde-1a9355225955&quot; style=&quot;font-weight:normal;&quot;&gt;&lt;span style=&quot;font-family: Lexend, sans-serif; color: rgb(0, 0, 0); background-color: transparent; font-weight: 400; font-style: normal; font-variant: normal; text-decoration: none; vertical-align: baseline; white-space: pre-wrap;&quot;&gt;Creus que has pogut escapar pero al pujar del soterrani està el dimoni i et posseeix.&lt;/span&gt;&lt;/b&gt;&lt;br&gt;&lt;/font&gt;" style="rounded=0;whiteSpace=wrap;html=1;" vertex="1" parent="1">
          <mxGeometry x="530" y="1850" width="140" height="120" as="geometry" />
        </mxCell>
        <mxCell id="jPeqhv5qNegoeW0ZLiaF-59" value="" style="edgeStyle=orthogonalEdgeStyle;rounded=0;orthogonalLoop=1;jettySize=auto;html=1;" edge="1" parent="1" source="jPeqhv5qNegoeW0ZLiaF-52" target="jPeqhv5qNegoeW0ZLiaF-56">
          <mxGeometry relative="1" as="geometry" />
        </mxCell>
        <mxCell id="jPeqhv5qNegoeW0ZLiaF-52" value="&lt;span id=&quot;docs-internal-guid-c5dea7cc-7fff-2581-3bd4-0741d0224904&quot;&gt;&lt;span style=&quot;font-family: Lexend, sans-serif; color: rgb(0, 0, 0); background-color: transparent; font-variant-numeric: normal; font-variant-east-asian: normal; font-variant-alternates: normal; font-variant-position: normal; font-variant-emoji: normal; vertical-align: baseline; white-space-collapse: preserve;&quot;&gt;&lt;font&gt;Aconsegueixes vèncer l&#39;home, però et mors per hemorràgia&lt;/font&gt;&lt;/span&gt;&lt;/span&gt;" style="rounded=0;whiteSpace=wrap;html=1;" vertex="1" parent="1">
          <mxGeometry x="695" y="1790" width="170" height="80" as="geometry" />
        </mxCell>
        <mxCell id="jPeqhv5qNegoeW0ZLiaF-54" value="" style="ellipse;html=1;shape=endState;fillColor=#000000;strokeColor=#ff0000;" vertex="1" parent="1">
          <mxGeometry x="381.26" y="1970" width="30" height="30" as="geometry" />
        </mxCell>
        <mxCell id="jPeqhv5qNegoeW0ZLiaF-55" value="" style="ellipse;html=1;shape=endState;fillColor=#000000;strokeColor=#ff0000;" vertex="1" parent="1">
          <mxGeometry x="585" y="2020" width="30" height="30" as="geometry" />
        </mxCell>
        <mxCell id="jPeqhv5qNegoeW0ZLiaF-56" value="" style="ellipse;html=1;shape=endState;fillColor=#000000;strokeColor=#ff0000;" vertex="1" parent="1">
          <mxGeometry x="765" y="1920" width="30" height="30" as="geometry" />
        </mxCell>
        <mxCell id="jPeqhv5qNegoeW0ZLiaF-63" value="" style="edgeStyle=orthogonalEdgeStyle;rounded=0;orthogonalLoop=1;jettySize=auto;html=1;" edge="1" parent="1" source="jPeqhv5qNegoeW0ZLiaF-60" target="jPeqhv5qNegoeW0ZLiaF-62">
          <mxGeometry relative="1" as="geometry" />
        </mxCell>
        <mxCell id="jPeqhv5qNegoeW0ZLiaF-60" value="Entras a una porta que es un portal a un altre univers." style="rounded=0;whiteSpace=wrap;html=1;" vertex="1" parent="1">
          <mxGeometry x="1060" y="1050" width="130" height="60" as="geometry" />
        </mxCell>
        <mxCell id="jPeqhv5qNegoeW0ZLiaF-68" value="" style="edgeStyle=orthogonalEdgeStyle;rounded=0;orthogonalLoop=1;jettySize=auto;html=1;" edge="1" parent="1" source="jPeqhv5qNegoeW0ZLiaF-62" target="jPeqhv5qNegoeW0ZLiaF-65">
          <mxGeometry relative="1" as="geometry" />
        </mxCell>
        <mxCell id="jPeqhv5qNegoeW0ZLiaF-69" value="" style="edgeStyle=orthogonalEdgeStyle;rounded=0;orthogonalLoop=1;jettySize=auto;html=1;" edge="1" parent="1" source="jPeqhv5qNegoeW0ZLiaF-62" target="jPeqhv5qNegoeW0ZLiaF-66">
          <mxGeometry relative="1" as="geometry" />
        </mxCell>
        <mxCell id="jPeqhv5qNegoeW0ZLiaF-70" value="" style="edgeStyle=orthogonalEdgeStyle;rounded=0;orthogonalLoop=1;jettySize=auto;html=1;" edge="1" parent="1" source="jPeqhv5qNegoeW0ZLiaF-62" target="jPeqhv5qNegoeW0ZLiaF-67">
          <mxGeometry relative="1" as="geometry" />
        </mxCell>
        <mxCell id="jPeqhv5qNegoeW0ZLiaF-62" value="Entrar o entrar per la porta principal?" style="rhombus;whiteSpace=wrap;html=1;" vertex="1" parent="1">
          <mxGeometry x="1040" y="1170" width="170" height="140" as="geometry" />
        </mxCell>
        <mxCell id="jPeqhv5qNegoeW0ZLiaF-72" value="" style="edgeStyle=orthogonalEdgeStyle;rounded=0;orthogonalLoop=1;jettySize=auto;html=1;" edge="1" parent="1" source="jPeqhv5qNegoeW0ZLiaF-65" target="jPeqhv5qNegoeW0ZLiaF-71">
          <mxGeometry relative="1" as="geometry" />
        </mxCell>
        <mxCell id="jPeqhv5qNegoeW0ZLiaF-65" value="True (Biblia)" style="text;html=1;align=center;verticalAlign=middle;whiteSpace=wrap;rounded=0;" vertex="1" parent="1">
          <mxGeometry x="910" y="1225" width="80" height="30" as="geometry" />
        </mxCell>
        <mxCell id="jPeqhv5qNegoeW0ZLiaF-76" value="" style="edgeStyle=orthogonalEdgeStyle;rounded=0;orthogonalLoop=1;jettySize=auto;html=1;" edge="1" parent="1" source="jPeqhv5qNegoeW0ZLiaF-66" target="jPeqhv5qNegoeW0ZLiaF-75">
          <mxGeometry relative="1" as="geometry" />
        </mxCell>
        <mxCell id="jPeqhv5qNegoeW0ZLiaF-66" value="False&amp;nbsp; (Biblia)" style="text;html=1;align=center;verticalAlign=middle;whiteSpace=wrap;rounded=0;" vertex="1" parent="1">
          <mxGeometry x="1280" y="1225" width="80" height="30" as="geometry" />
        </mxCell>
        <mxCell id="jPeqhv5qNegoeW0ZLiaF-74" value="" style="edgeStyle=orthogonalEdgeStyle;rounded=0;orthogonalLoop=1;jettySize=auto;html=1;" edge="1" parent="1" source="jPeqhv5qNegoeW0ZLiaF-67" target="jPeqhv5qNegoeW0ZLiaF-73">
          <mxGeometry relative="1" as="geometry" />
        </mxCell>
        <mxCell id="jPeqhv5qNegoeW0ZLiaF-67" value="Principal" style="text;html=1;align=center;verticalAlign=middle;whiteSpace=wrap;rounded=0;" vertex="1" parent="1">
          <mxGeometry x="1095" y="1350" width="60" height="30" as="geometry" />
        </mxCell>
        <mxCell id="jPeqhv5qNegoeW0ZLiaF-80" value="" style="edgeStyle=orthogonalEdgeStyle;rounded=0;orthogonalLoop=1;jettySize=auto;html=1;" edge="1" parent="1" source="jPeqhv5qNegoeW0ZLiaF-71" target="jPeqhv5qNegoeW0ZLiaF-79">
          <mxGeometry relative="1" as="geometry" />
        </mxCell>
        <mxCell id="jPeqhv5qNegoeW0ZLiaF-71" value="&lt;span id=&quot;docs-internal-guid-1f5df759-7fff-9422-e994-41cd515efeda&quot;&gt;&lt;span style=&quot;font-family: Lexend, sans-serif; color: rgb(0, 0, 0); background-color: transparent; font-variant-numeric: normal; font-variant-east-asian: normal; font-variant-alternates: normal; font-variant-position: normal; font-variant-emoji: normal; vertical-align: baseline; white-space-collapse: preserve;&quot;&gt;&lt;font&gt;Estàs a una realitat paral·lela on tens la vida que sempre somiaves, una familia perfecta, diners, motos, gossos, una mansió …&lt;/font&gt;&lt;/span&gt;&lt;/span&gt;" style="rounded=0;whiteSpace=wrap;html=1;" vertex="1" parent="1">
          <mxGeometry x="862.5" y="1325" width="175" height="100" as="geometry" />
        </mxCell>
        <mxCell id="jPeqhv5qNegoeW0ZLiaF-82" value="" style="edgeStyle=orthogonalEdgeStyle;rounded=0;orthogonalLoop=1;jettySize=auto;html=1;" edge="1" parent="1" source="jPeqhv5qNegoeW0ZLiaF-73" target="jPeqhv5qNegoeW0ZLiaF-77">
          <mxGeometry relative="1" as="geometry" />
        </mxCell>
        <mxCell id="jPeqhv5qNegoeW0ZLiaF-73" value="&lt;span id=&quot;docs-internal-guid-eeb3872c-7fff-ef1d-5b65-f9d7836cad64&quot;&gt;&lt;span style=&quot;font-family: Lexend, sans-serif; color: rgb(0, 0, 0); background-color: transparent; font-variant-numeric: normal; font-variant-east-asian: normal; font-variant-alternates: normal; font-variant-position: normal; font-variant-emoji: normal; vertical-align: baseline; white-space-collapse: preserve;&quot;&gt;&lt;font&gt;No aconsegueixes obrir la porta, ja que s&#39;ha travat i tota la família mor, però tornes a casa sense morir.&lt;/font&gt;&lt;/span&gt;&lt;/span&gt;" style="rounded=0;whiteSpace=wrap;html=1;" vertex="1" parent="1">
          <mxGeometry x="1047.5" y="1425" width="155" height="100" as="geometry" />
        </mxCell>
        <mxCell id="jPeqhv5qNegoeW0ZLiaF-81" value="" style="edgeStyle=orthogonalEdgeStyle;rounded=0;orthogonalLoop=1;jettySize=auto;html=1;" edge="1" parent="1" source="jPeqhv5qNegoeW0ZLiaF-75" target="jPeqhv5qNegoeW0ZLiaF-78">
          <mxGeometry relative="1" as="geometry" />
        </mxCell>
        <mxCell id="jPeqhv5qNegoeW0ZLiaF-75" value="&lt;span id=&quot;docs-internal-guid-09ad0916-7fff-2d83-ffab-48ac059d825e&quot;&gt;&lt;span style=&quot;font-family: Lexend, sans-serif; color: rgb(0, 0, 0); background-color: transparent; font-variant-numeric: normal; font-variant-east-asian: normal; font-variant-alternates: normal; font-variant-position: normal; font-variant-emoji: normal; vertical-align: baseline; white-space-collapse: preserve;&quot;&gt;&lt;font&gt;Ets enviat a una realitat paral·lela on simula l&#39;infern i sofreixes l&#39;eternitat en aquella realitat. &lt;/font&gt;&lt;/span&gt;&lt;/span&gt;" style="rounded=0;whiteSpace=wrap;html=1;" vertex="1" parent="1">
          <mxGeometry x="1240" y="1320" width="160" height="90" as="geometry" />
        </mxCell>
        <mxCell id="jPeqhv5qNegoeW0ZLiaF-77" value="" style="ellipse;html=1;shape=endState;fillColor=#000000;strokeColor=#ff0000;" vertex="1" parent="1">
          <mxGeometry x="1110" y="1560" width="30" height="30" as="geometry" />
        </mxCell>
        <mxCell id="jPeqhv5qNegoeW0ZLiaF-78" value="" style="ellipse;html=1;shape=endState;fillColor=#000000;strokeColor=#ff0000;" vertex="1" parent="1">
          <mxGeometry x="1305" y="1450" width="30" height="30" as="geometry" />
        </mxCell>
        <mxCell id="jPeqhv5qNegoeW0ZLiaF-79" value="" style="ellipse;html=1;shape=endState;fillColor=#000000;strokeColor=#ff0000;" vertex="1" parent="1">
          <mxGeometry x="935" y="1465" width="30" height="30" as="geometry" />
        </mxCell>
      </root>
    </mxGraphModel>
  </diagram>
</mxfile>
